<svg width="25" height="25" viewBox="0 0 218 206" fill="#E5E5E5" xmlns="http://www.w3.org/2000/svg">
<path fill-rule="evenodd" clip-rule="evenodd" d="M189.872 104.848C187.353 152.299 148.079 190 100 190C91.6276 190 83.5221 188.857 75.8313 186.718C95.6342 173.044 110.329 155.771 117.318 135.968C117.706 134.869 118.067 133.77 118.402 132.671C140.682 130.235 165.353 120.991 189.872 104.848ZM189.723 92.8904C164.605 110.063 139.459 119.484 117.259 121.613H115.646L115.893 92.2458C116.007 78.8497 113.23 66.0988 108.147 54.5858C116.669 51.9468 125.643 50.5377 134.884 50.5377C152.119 50.5377 168.377 55.3972 182.508 63.9931C186.426 72.9584 188.926 82.6854 189.723 92.8904ZM199.976 97.7922C199.992 98.5262 200 99.2622 200 100C200 155.228 155.228 200 100 200C87.625 200 75.775 197.752 64.8361 193.643C56.777 198.27 48.0669 202.367 38.8419 205.877L38.5523 205.377L37.7003 206C36.6961 203.723 35.7588 201.406 34.8912 199.05L34.2228 197.895L34.4436 197.814C31.2475 188.836 29.0592 179.32 28.028 169.427C10.6742 151.441 0 126.967 0 100C0 74.623 9.45269 51.4539 25.0291 33.8214L25.2302 9.99964L25.3146 0C28.6938 0.0330951 32.0286 0.249252 35.3096 0.638959C44.4684 1.72681 53.2085 4.16701 61.3266 7.75267C73.2233 2.75922 86.2894 0 100 0C139.885 0 174.316 23.3503 190.369 57.1265C198.943 62.7003 206.737 69.527 213.531 77.3711L213.202 77.6116L218 83.0841C212.851 87.7104 207.484 92.1423 201.916 96.3437C201.27 96.8314 200.623 97.3142 199.976 97.7922ZM196.728 74.5341C199.369 76.8869 201.896 79.3894 204.298 82.0308C202.572 83.4273 200.822 84.8016 199.049 86.1523C198.502 82.2011 197.723 78.3237 196.728 74.5341ZM173.682 48.3059C157.399 25.1395 130.468 10 100 10C90.6569 10 81.6463 11.4237 73.1733 14.066C85.6582 21.9489 96.0989 32.7659 103.533 45.5373C113.452 42.2863 123.979 40.5377 134.884 40.5377C148.564 40.5377 161.647 43.289 173.682 48.3059ZM49.2143 13.8375C44.7097 12.3999 40.0339 11.3433 35.2246 10.706L35.1131 23.9074C39.5019 20.1614 44.2186 16.7884 49.2143 13.8375ZM34.9962 37.7542C42.4766 29.9445 51.3505 23.4803 61.2185 18.7611C74.802 25.651 86.188 36.2333 94.066 49.1734C75.5278 57.3721 59.5863 70.9878 47.9394 88.1918C39.5974 75.282 34.8095 59.8733 34.9489 43.3642L34.9962 37.7542ZM25.1384 50.0255C15.5761 64.3214 10 81.5095 10 100C10 119.898 16.4573 138.288 27.3908 153.188C27.897 132.909 33.2427 113.93 42.2292 97.5424C32.4451 84.0007 26.2796 67.6845 25.1384 50.0255ZM39.7564 179.824C40.7789 184.724 42.1144 189.492 43.7381 194.103C47.4262 192.511 50.9946 190.821 54.4353 189.04C49.265 186.389 44.3558 183.3 39.7564 179.824ZM65.0869 182.978C54.8417 178.662 45.563 172.504 37.6654 164.919C37.4574 162.097 37.3513 159.242 37.3513 156.36C37.3513 138.014 41.6172 120.869 49.0894 105.945C63.4856 121.596 83.2725 132.229 105.533 134.873C106.092 134.939 106.651 135.001 107.213 135.057C100.477 153.587 85.6872 170.104 65.0869 182.978ZM105.639 122.291L104.235 124.611C84.2922 121.619 66.7341 111.403 54.2825 96.7328C65.1898 79.4398 80.6888 65.9016 98.7534 58.0673C103.434 68.4616 105.996 80.0072 105.894 92.1479L105.639 122.291Z" fill="white"/>
</svg>
